<svg xmlns="http://www.w3.org/2000/svg" xmlns:xlink="http://www.w3.org/1999/xlink" viewBox="0 0 144 216"><defs><style>.cls-1{fill:url(#Degradado_sin_nombre_19);}.cls-2{fill:url(#Degradado_sin_nombre_19-2);}</style><linearGradient id="Degradado_sin_nombre_19" x1="18" y1="102.09" x2="18" y2="2.38" gradientUnits="userSpaceOnUse"><stop offset="0" stop-color="#e9465d"/><stop offset="1" stop-color="#ed6e16"/></linearGradient><linearGradient id="Degradado_sin_nombre_19-2" x1="72" y1="216" x2="72" y2="0" xlink:href="#Degradado_sin_nombre_19"/></defs><g id="Capa_2" data-name="Capa 2"><g id="Capa_1-2" data-name="Capa 1"><path class="cls-1" d="M36,2.38V76.62a80.27,80.27,0,0,0-18,9q-3.06,2-5.91,4.35A80.82,80.82,0,0,0,0,102.09V13.53A152.25,152.25,0,0,1,36,2.38Z"/><path class="cls-2" d="M144,23.18V36H126V216H90V153a26.79,26.79,0,0,0-1.54-9A27.06,27.06,0,0,0,72,127.54,26.79,26.79,0,0,0,63,126h-.77v0A26.39,26.39,0,0,0,54,127.54,27.06,27.06,0,0,0,37.54,144a27.07,27.07,0,0,0,0,18A27.06,27.06,0,0,0,54,178.46,26.39,26.39,0,0,0,62.23,180v36a60.38,60.38,0,0,1-8.23-.64,62.28,62.28,0,0,1-18-5.41A63.23,63.23,0,0,1,18.91,198l-.91-.91A63.23,63.23,0,0,1,6.06,180a63.24,63.24,0,0,1,0-54A62.93,62.93,0,0,1,18,108.91c.3-.31.6-.61.91-.91A63.23,63.23,0,0,1,36,96.06a62.28,62.28,0,0,1,18-5.41A60.38,60.38,0,0,1,62.23,90H63a63.44,63.44,0,0,1,27,6.06V2.38q4.56.81,9,1.89V0h9V16.18q2.63.86,5.21,1.82c1.27.47,2.53,1,3.79,1.47q4.57,1.86,9,4v-10c3.05,1.38,6.06,2.86,9,4.44v0h.06Q139.62,20.45,144,23.18Z"/></g></g></svg>